<svg xmlns="http://www.w3.org/2000/svg" xmlns:xlink="http://www.w3.org/1999/xlink" width="500" zoomAndPan="magnify" viewBox="0 0 375 374.999991" height="500" preserveAspectRatio="xMidYMid meet" version="1.0"><defs><g/></defs><g fill="#ffffff" fill-opacity="1"><g transform="translate(112.253707, 206.845534)"><g><path d="M 45 -103.046875 C 38.601562 -101.242188 33.351562 -98.144531 29.25 -93.75 C 25.144531 -89.351562 22.066406 -84.203125 20.015625 -78.296875 C 17.972656 -72.398438 16.875 -66.25 16.71875 -59.84375 C 16.570312 -53.445312 17.195312 -47.398438 18.59375 -41.703125 C 20.195312 -36.003906 22.671875 -30.425781 26.015625 -24.96875 C 29.367188 -19.519531 33.394531 -14.742188 38.09375 -10.640625 C 42.800781 -6.546875 48.03125 -3.648438 53.78125 -1.953125 C 59.53125 -0.253906 65.601562 -0.253906 72 -1.953125 C 77.601562 -3.453125 82.28125 -5.972656 86.03125 -9.515625 C 89.78125 -13.066406 92.753906 -17.269531 94.953125 -22.125 C 97.148438 -26.976562 98.597656 -32.101562 99.296875 -37.5 L 99.296875 -18.453125 C 92.492188 -9.847656 83.492188 -4.097656 72.296875 -1.203125 C 65.097656 0.898438 58.046875 1.472656 51.140625 0.515625 C 44.242188 -0.429688 37.84375 -2.65625 31.9375 -6.15625 C 26.039062 -9.65625 20.914062 -14.175781 16.5625 -19.71875 C 12.21875 -25.269531 9.046875 -31.597656 7.046875 -38.703125 C 5.242188 -45.796875 4.84375 -52.816406 5.84375 -59.765625 C 6.84375 -66.722656 9.066406 -73.222656 12.515625 -79.265625 C 15.972656 -85.316406 20.425781 -90.492188 25.875 -94.796875 C 31.320312 -99.097656 37.597656 -102.195312 44.703125 -104.09375 C 51.398438 -105.894531 57.375 -106.671875 62.625 -106.421875 C 67.875 -106.171875 72.445312 -105.296875 76.34375 -103.796875 C 80.25 -102.296875 83.5 -100.617188 86.09375 -98.765625 C 88.695312 -96.921875 90.625 -95.296875 91.875 -93.890625 C 93.125 -92.492188 93.75 -91.796875 93.75 -91.796875 L 93.75 -76.203125 C 93.75 -76.203125 93.296875 -77.050781 92.390625 -78.75 C 91.492188 -80.445312 90.144531 -82.570312 88.34375 -85.125 C 86.550781 -87.675781 84.300781 -90.300781 81.59375 -93 C 78.894531 -95.695312 75.742188 -98.09375 72.140625 -100.1875 C 68.546875 -102.289062 64.5 -103.664062 60 -104.3125 C 55.5 -104.96875 50.5 -104.546875 45 -103.046875 Z M 45 -103.046875 "/></g></g></g><g fill="#0993eb" fill-opacity="1"><g transform="translate(156.803608, 233.542134)"><g><path d="M 78.15625 0 L 61.203125 -40.65625 C 54.796875 -40.050781 49.519531 -38.75 45.375 -36.75 C 41.226562 -34.75 37.878906 -32.320312 35.328125 -29.46875 C 32.773438 -26.625 30.722656 -23.648438 29.171875 -20.546875 C 27.617188 -17.453125 26.242188 -14.550781 25.046875 -11.84375 C 23.648438 -8.144531 22.125 -5.070312 20.46875 -2.625 C 18.820312 -0.175781 16.300781 1 12.90625 0.90625 C 12.5 0.800781 12.117188 0.695312 11.765625 0.59375 C 11.421875 0.5 11 0.25 10.5 -0.15625 C 6.394531 -1.945312 4.742188 -6.296875 5.546875 -13.203125 C 5.953125 -16.503906 6.675781 -20.226562 7.71875 -24.375 C 8.769531 -28.519531 10.195312 -32.992188 12 -37.796875 C 14.695312 -44.992188 17.867188 -52.617188 21.515625 -60.671875 C 25.171875 -68.722656 29.023438 -76.671875 33.078125 -84.515625 C 37.128906 -92.367188 41.050781 -99.5 44.84375 -105.90625 L 45.90625 -105.90625 L 90.75 0 Z M 60.75 -41.703125 L 38.703125 -93 C 34.097656 -84.195312 29.46875 -74.921875 24.8125 -65.171875 C 20.164062 -55.421875 16.242188 -46.195312 13.046875 -37.5 C 11.242188 -32.695312 9.816406 -28.242188 8.765625 -24.140625 C 7.722656 -20.046875 7 -16.398438 6.59375 -13.203125 C 6.5 -10.097656 6.75 -7.46875 7.34375 -5.3125 C 7.945312 -3.164062 9.148438 -1.796875 10.953125 -1.203125 C 11.453125 -1.097656 11.828125 -0.992188 12.078125 -0.890625 C 12.328125 -0.796875 12.648438 -0.648438 13.046875 -0.453125 C 16.046875 -0.253906 18.296875 -1.300781 19.796875 -3.59375 C 21.296875 -5.894531 22.644531 -8.75 23.84375 -12.15625 C 25.050781 -14.945312 26.453125 -17.914062 28.046875 -21.0625 C 29.648438 -24.21875 31.773438 -27.242188 34.421875 -30.140625 C 37.078125 -33.046875 40.503906 -35.546875 44.703125 -37.640625 C 48.898438 -39.742188 54.25 -41.097656 60.75 -41.703125 Z M 60.75 -41.703125 "/></g></g></g><g fill="#ffffff" fill-opacity="1"><g transform="translate(97.512201, 265.345531)"><g><path d="M 8.15625 -18.6875 C 7 -18.363281 6.046875 -17.800781 5.296875 -17 C 4.554688 -16.207031 4 -15.273438 3.625 -14.203125 C 3.257812 -13.128906 3.0625 -12.007812 3.03125 -10.84375 C 3.007812 -9.6875 3.125 -8.59375 3.375 -7.5625 C 3.664062 -6.53125 4.113281 -5.519531 4.71875 -4.53125 C 5.320312 -3.539062 6.050781 -2.671875 6.90625 -1.921875 C 7.757812 -1.179688 8.707031 -0.65625 9.75 -0.34375 C 10.789062 -0.0390625 11.894531 -0.046875 13.0625 -0.359375 C 14.070312 -0.628906 14.914062 -1.082031 15.59375 -1.71875 C 16.28125 -2.363281 16.820312 -3.125 17.21875 -4 C 17.613281 -4.882812 17.878906 -5.816406 18.015625 -6.796875 L 18.015625 -3.34375 C 16.773438 -1.78125 15.140625 -0.738281 13.109375 -0.21875 C 11.804688 0.164062 10.53125 0.269531 9.28125 0.09375 C 8.03125 -0.0703125 6.867188 -0.472656 5.796875 -1.109375 C 4.722656 -1.742188 3.789062 -2.566406 3 -3.578125 C 2.21875 -4.585938 1.644531 -5.734375 1.28125 -7.015625 C 0.945312 -8.304688 0.867188 -9.582031 1.046875 -10.84375 C 1.234375 -12.101562 1.640625 -13.28125 2.265625 -14.375 C 2.890625 -15.46875 3.695312 -16.40625 4.6875 -17.1875 C 5.675781 -17.96875 6.816406 -18.53125 8.109375 -18.875 C 9.316406 -19.207031 10.394531 -19.347656 11.34375 -19.296875 C 12.300781 -19.253906 13.132812 -19.097656 13.84375 -18.828125 C 14.550781 -18.554688 15.140625 -18.25 15.609375 -17.90625 C 16.085938 -17.570312 16.4375 -17.273438 16.65625 -17.015625 C 16.882812 -16.765625 17 -16.640625 17 -16.640625 L 17 -13.8125 C 17 -13.8125 16.914062 -13.96875 16.75 -14.28125 C 16.59375 -14.59375 16.347656 -14.976562 16.015625 -15.4375 C 15.691406 -15.894531 15.285156 -16.367188 14.796875 -16.859375 C 14.304688 -17.347656 13.734375 -17.785156 13.078125 -18.171875 C 12.429688 -18.554688 11.695312 -18.804688 10.875 -18.921875 C 10.0625 -19.035156 9.15625 -18.957031 8.15625 -18.6875 Z M 8.15625 -18.6875 "/></g></g></g><g fill="#ffffff" fill-opacity="1"><g transform="translate(117.476818, 265.345531)"><g><path d="M 14.171875 0 L 11.09375 -7.375 C 9.9375 -7.257812 8.976562 -7.019531 8.21875 -6.65625 C 7.46875 -6.300781 6.863281 -5.863281 6.40625 -5.34375 C 5.945312 -4.820312 5.578125 -4.28125 5.296875 -3.71875 C 5.015625 -3.164062 4.765625 -2.644531 4.546875 -2.15625 C 4.285156 -1.476562 4.003906 -0.914062 3.703125 -0.46875 C 3.410156 -0.03125 2.957031 0.175781 2.34375 0.15625 C 2.269531 0.144531 2.203125 0.128906 2.140625 0.109375 C 2.078125 0.0859375 2 0.0390625 1.90625 -0.03125 C 1.15625 -0.351562 0.851562 -1.140625 1 -2.390625 C 1.070312 -2.992188 1.203125 -3.671875 1.390625 -4.421875 C 1.585938 -5.171875 1.847656 -5.984375 2.171875 -6.859375 C 2.660156 -8.160156 3.234375 -9.539062 3.890625 -11 C 4.554688 -12.457031 5.253906 -13.898438 5.984375 -15.328125 C 6.722656 -16.753906 7.441406 -18.046875 8.140625 -19.203125 L 8.328125 -19.203125 L 16.453125 0 Z M 11.015625 -7.5625 L 7.015625 -16.859375 C 6.179688 -15.265625 5.34375 -13.582031 4.5 -11.8125 C 3.65625 -10.050781 2.941406 -8.378906 2.359375 -6.796875 C 2.035156 -5.929688 1.78125 -5.125 1.59375 -4.375 C 1.40625 -3.632812 1.273438 -2.972656 1.203125 -2.390625 C 1.179688 -1.828125 1.222656 -1.347656 1.328125 -0.953125 C 1.441406 -0.566406 1.660156 -0.320312 1.984375 -0.21875 C 2.078125 -0.195312 2.144531 -0.175781 2.1875 -0.15625 C 2.238281 -0.144531 2.296875 -0.117188 2.359375 -0.078125 C 2.910156 -0.046875 3.320312 -0.238281 3.59375 -0.65625 C 3.863281 -1.070312 4.109375 -1.585938 4.328125 -2.203125 C 4.546875 -2.710938 4.796875 -3.25 5.078125 -3.8125 C 5.367188 -4.382812 5.753906 -4.929688 6.234375 -5.453125 C 6.722656 -5.984375 7.347656 -6.441406 8.109375 -6.828125 C 8.867188 -7.210938 9.835938 -7.457031 11.015625 -7.5625 Z M 11.015625 -7.5625 "/></g></g></g><g fill="#ffffff" fill-opacity="1"><g transform="translate(135.891082, 265.345531)"><g><path d="M 0.953125 0 L 0.953125 -19.203125 L 3 -19.203125 L 3 0 Z M 0.953125 0 "/></g></g></g><g fill="#ffffff" fill-opacity="1"><g transform="translate(140.841739, 265.345531)"><g><path d="M 0.953125 -19.203125 L 3 -19.203125 C 4.476562 -19.203125 5.789062 -18.695312 6.9375 -17.6875 C 8.09375 -16.6875 9.0625 -15.394531 9.84375 -13.8125 C 10.644531 -12.332031 11.28125 -10.695312 11.75 -8.90625 C 12.21875 -7.125 12.554688 -5.351562 12.765625 -3.59375 L 12.765625 -19.203125 L 14.796875 -19.203125 L 14.796875 0 L 12.765625 0 C 12.765625 -1.445312 12.648438 -2.976562 12.421875 -4.59375 C 12.191406 -6.207031 11.851562 -7.800781 11.40625 -9.375 C 10.96875 -10.957031 10.410156 -12.398438 9.734375 -13.703125 C 8.921875 -15.265625 7.960938 -16.539062 6.859375 -17.53125 C 5.753906 -18.519531 4.46875 -19.015625 3 -19.015625 L 3 0 L 0.953125 0 Z M 0.953125 -19.203125 "/></g></g></g><g fill="#ffffff" fill-opacity="1"><g transform="translate(157.596849, 265.345531)"><g/></g></g><g fill="#ffffff" fill-opacity="1"><g transform="translate(166.192197, 265.345531)"><g><path d="M 14.171875 0 L 11.09375 -7.375 C 9.9375 -7.257812 8.976562 -7.019531 8.21875 -6.65625 C 7.46875 -6.300781 6.863281 -5.863281 6.40625 -5.34375 C 5.945312 -4.820312 5.578125 -4.28125 5.296875 -3.71875 C 5.015625 -3.164062 4.765625 -2.644531 4.546875 -2.15625 C 4.285156 -1.476562 4.003906 -0.914062 3.703125 -0.46875 C 3.410156 -0.03125 2.957031 0.175781 2.34375 0.15625 C 2.269531 0.144531 2.203125 0.128906 2.140625 0.109375 C 2.078125 0.0859375 2 0.0390625 1.90625 -0.03125 C 1.15625 -0.351562 0.851562 -1.140625 1 -2.390625 C 1.070312 -2.992188 1.203125 -3.671875 1.390625 -4.421875 C 1.585938 -5.171875 1.847656 -5.984375 2.171875 -6.859375 C 2.660156 -8.160156 3.234375 -9.539062 3.890625 -11 C 4.554688 -12.457031 5.253906 -13.898438 5.984375 -15.328125 C 6.722656 -16.753906 7.441406 -18.046875 8.140625 -19.203125 L 8.328125 -19.203125 L 16.453125 0 Z M 11.015625 -7.5625 L 7.015625 -16.859375 C 6.179688 -15.265625 5.34375 -13.582031 4.5 -11.8125 C 3.65625 -10.050781 2.941406 -8.378906 2.359375 -6.796875 C 2.035156 -5.929688 1.78125 -5.125 1.59375 -4.375 C 1.40625 -3.632812 1.273438 -2.972656 1.203125 -2.390625 C 1.179688 -1.828125 1.222656 -1.347656 1.328125 -0.953125 C 1.441406 -0.566406 1.660156 -0.320312 1.984375 -0.21875 C 2.078125 -0.195312 2.144531 -0.175781 2.1875 -0.15625 C 2.238281 -0.144531 2.296875 -0.117188 2.359375 -0.078125 C 2.910156 -0.046875 3.320312 -0.238281 3.59375 -0.65625 C 3.863281 -1.070312 4.109375 -1.585938 4.328125 -2.203125 C 4.546875 -2.710938 4.796875 -3.25 5.078125 -3.8125 C 5.367188 -4.382812 5.753906 -4.929688 6.234375 -5.453125 C 6.722656 -5.984375 7.347656 -6.441406 8.109375 -6.828125 C 8.867188 -7.210938 9.835938 -7.457031 11.015625 -7.5625 Z M 11.015625 -7.5625 "/></g></g></g><g fill="#ffffff" fill-opacity="1"><g transform="translate(184.606461, 265.345531)"><g><path d="M 8.65625 -10.609375 C 9.59375 -10.390625 10.351562 -9.972656 10.9375 -9.359375 C 11.519531 -8.742188 12.003906 -8.019531 12.390625 -7.1875 C 12.773438 -6.351562 13.148438 -5.507812 13.515625 -4.65625 C 13.859375 -3.875 14.210938 -3.140625 14.578125 -2.453125 C 14.941406 -1.773438 15.347656 -1.234375 15.796875 -0.828125 C 16.253906 -0.421875 16.78125 -0.21875 17.375 -0.21875 L 17.375 0 C 15.96875 0 14.847656 -0.1875 14.015625 -0.5625 C 13.191406 -0.945312 12.570312 -1.453125 12.15625 -2.078125 C 11.738281 -2.703125 11.4375 -3.382812 11.25 -4.125 C 11.070312 -4.875 10.929688 -5.617188 10.828125 -6.359375 C 10.734375 -7.109375 10.59375 -7.796875 10.40625 -8.421875 C 10.21875 -9.046875 9.898438 -9.546875 9.453125 -9.921875 C 9.003906 -10.304688 8.347656 -10.5 7.484375 -10.5 C 6.097656 -10.5 4.988281 -11.148438 4.15625 -12.453125 C 3.6875 -13.210938 3.332031 -14.148438 3.09375 -15.265625 L 3.09375 0 L 0.953125 0 L 0.953125 -19.234375 L 5.734375 -19.234375 C 7.078125 -19.234375 8.296875 -19.085938 9.390625 -18.796875 C 10.492188 -18.503906 11.375 -18.046875 12.03125 -17.421875 C 12.695312 -16.796875 13.03125 -15.96875 13.03125 -14.9375 C 13.03125 -14.039062 12.828125 -13.289062 12.421875 -12.6875 C 12.023438 -12.082031 11.492188 -11.609375 10.828125 -11.265625 C 10.171875 -10.929688 9.445312 -10.710938 8.65625 -10.609375 Z M 10.875 -14.9375 C 10.875 -15.96875 10.628906 -16.78125 10.140625 -17.375 C 9.648438 -17.976562 9.015625 -18.398438 8.234375 -18.640625 C 7.460938 -18.890625 6.628906 -19.015625 5.734375 -19.015625 L 3.09375 -19.015625 L 3.09375 -17.328125 C 3.09375 -16.328125 3.207031 -15.4375 3.4375 -14.65625 C 3.664062 -13.882812 3.972656 -13.195312 4.359375 -12.59375 C 4.734375 -12.03125 5.191406 -11.570312 5.734375 -11.21875 C 6.285156 -10.863281 6.867188 -10.6875 7.484375 -10.6875 L 7.671875 -10.6875 C 8.546875 -10.738281 9.296875 -11.097656 9.921875 -11.765625 C 10.554688 -12.441406 10.875 -13.5 10.875 -14.9375 Z M 10.875 -14.9375 "/></g></g></g><g fill="#ffffff" fill-opacity="1"><g transform="translate(203.945498, 265.345531)"><g><path d="M 8.15625 -18.6875 C 7 -18.363281 6.046875 -17.800781 5.296875 -17 C 4.554688 -16.207031 4 -15.273438 3.625 -14.203125 C 3.257812 -13.128906 3.0625 -12.007812 3.03125 -10.84375 C 3.007812 -9.6875 3.125 -8.59375 3.375 -7.5625 C 3.664062 -6.53125 4.113281 -5.519531 4.71875 -4.53125 C 5.320312 -3.539062 6.050781 -2.671875 6.90625 -1.921875 C 7.757812 -1.179688 8.707031 -0.65625 9.75 -0.34375 C 10.789062 -0.0390625 11.894531 -0.046875 13.0625 -0.359375 C 14.070312 -0.628906 14.914062 -1.082031 15.59375 -1.71875 C 16.28125 -2.363281 16.820312 -3.125 17.21875 -4 C 17.613281 -4.882812 17.878906 -5.816406 18.015625 -6.796875 L 18.015625 -3.34375 C 16.773438 -1.78125 15.140625 -0.738281 13.109375 -0.21875 C 11.804688 0.164062 10.53125 0.269531 9.28125 0.09375 C 8.03125 -0.0703125 6.867188 -0.472656 5.796875 -1.109375 C 4.722656 -1.742188 3.789062 -2.566406 3 -3.578125 C 2.21875 -4.585938 1.644531 -5.734375 1.28125 -7.015625 C 0.945312 -8.304688 0.867188 -9.582031 1.046875 -10.84375 C 1.234375 -12.101562 1.640625 -13.28125 2.265625 -14.375 C 2.890625 -15.46875 3.695312 -16.40625 4.6875 -17.1875 C 5.675781 -17.96875 6.816406 -18.53125 8.109375 -18.875 C 9.316406 -19.207031 10.394531 -19.347656 11.34375 -19.296875 C 12.300781 -19.253906 13.132812 -19.097656 13.84375 -18.828125 C 14.550781 -18.554688 15.140625 -18.25 15.609375 -17.90625 C 16.085938 -17.570312 16.4375 -17.273438 16.65625 -17.015625 C 16.882812 -16.765625 17 -16.640625 17 -16.640625 L 17 -13.8125 C 17 -13.8125 16.914062 -13.96875 16.75 -14.28125 C 16.59375 -14.59375 16.347656 -14.976562 16.015625 -15.4375 C 15.691406 -15.894531 15.285156 -16.367188 14.796875 -16.859375 C 14.304688 -17.347656 13.734375 -17.785156 13.078125 -18.171875 C 12.429688 -18.554688 11.695312 -18.804688 10.875 -18.921875 C 10.0625 -19.035156 9.15625 -18.957031 8.15625 -18.6875 Z M 8.15625 -18.6875 "/></g></g></g><g fill="#ffffff" fill-opacity="1"><g transform="translate(223.910116, 265.345531)"><g><path d="M 3.015625 -11.296875 L 3.015625 0 L 0.953125 0 L 0.953125 -19.203125 L 3.015625 -19.203125 L 3.015625 -12.78125 C 3.015625 -11.988281 3.148438 -11.382812 3.421875 -10.96875 C 3.691406 -10.5625 4.054688 -10.285156 4.515625 -10.140625 C 4.972656 -9.992188 5.476562 -9.925781 6.03125 -9.9375 C 6.59375 -9.945312 7.171875 -9.96875 7.765625 -10 C 8.359375 -10.039062 8.925781 -10.046875 9.46875 -10.015625 C 10.007812 -9.992188 10.484375 -9.867188 10.890625 -9.640625 C 11.296875 -9.410156 11.601562 -9.023438 11.8125 -8.484375 L 11.8125 -19.203125 L 13.921875 -19.203125 L 13.921875 0 L 11.8125 0 L 11.8125 -7.015625 C 11.8125 -7.796875 11.671875 -8.390625 11.390625 -8.796875 C 11.117188 -9.203125 10.753906 -9.472656 10.296875 -9.609375 C 9.847656 -9.753906 9.347656 -9.828125 8.796875 -9.828125 C 8.242188 -9.828125 7.671875 -9.804688 7.078125 -9.765625 C 6.492188 -9.734375 5.925781 -9.734375 5.375 -9.765625 C 4.832031 -9.804688 4.351562 -9.929688 3.9375 -10.140625 C 3.519531 -10.359375 3.210938 -10.742188 3.015625 -11.296875 Z M 3.015625 -11.296875 "/></g></g></g><g fill="#ffffff" fill-opacity="1"><g transform="translate(239.794857, 265.345531)"><g><path d="M 0.953125 0 L 0.953125 -19.203125 L 3 -19.203125 L 3 0 Z M 0.953125 0 "/></g></g></g><g fill="#ffffff" fill-opacity="1"><g transform="translate(244.745514, 265.345531)"><g><path d="M 17.140625 -19.234375 L 17.40625 -19.234375 L 16 -15.90625 L 9.28125 0 L 9.0625 0 L 0.953125 -19.234375 L 3.1875 -19.234375 L 10.171875 -2.71875 L 11.234375 -5.296875 Z M 17.140625 -19.234375 "/></g></g></g><g fill="#ffffff" fill-opacity="1"><g transform="translate(264.111754, 265.345531)"><g><path d="M 3.046875 -12.8125 L 3.046875 -0.21875 L 7.640625 -0.21875 C 8.816406 -0.21875 9.78125 -0.503906 10.53125 -1.078125 C 11.289062 -1.660156 11.914062 -2.644531 12.40625 -4.03125 L 11.78125 0 L 0.953125 0 L 0.953125 -19.203125 L 11.9375 -19.203125 L 11.9375 -17.03125 C 11.300781 -17.644531 10.679688 -18.09375 10.078125 -18.375 C 9.484375 -18.65625 8.8125 -18.832031 8.0625 -18.90625 C 7.3125 -18.976562 6.382812 -19.015625 5.28125 -19.015625 L 3.046875 -19.015625 L 3.046875 -14.609375 C 3.046875 -13.378906 3.253906 -12.4375 3.671875 -11.78125 C 4.085938 -11.125 4.710938 -10.679688 5.546875 -10.453125 C 6.378906 -10.234375 7.421875 -10.125 8.671875 -10.125 L 8.671875 -7.96875 C 8.273438 -8.425781 7.800781 -8.785156 7.25 -9.046875 C 6.695312 -9.304688 6.132812 -9.578125 5.5625 -9.859375 C 4.988281 -10.140625 4.472656 -10.5 4.015625 -10.9375 C 3.566406 -11.382812 3.242188 -12.007812 3.046875 -12.8125 Z M 3.046875 -12.8125 "/></g></g></g></svg>